<?xml version="1.0" standalone="no"?>
<!DOCTYPE svg PUBLIC "-//W3C//DTD SVG 20010904//EN"
 "http://www.w3.org/TR/2001/REC-SVG-20010904/DTD/svg10.dtd">
<svg version="1.0" xmlns="http://www.w3.org/2000/svg"
 width="345.000000pt" height="345.000000pt" viewBox="0 0 345.000000 345.000000"
 preserveAspectRatio="xMidYMid meet">
<metadata>
Created by potrace 1.11, written by Peter Selinger 2001-2013
</metadata>
<g transform="translate(0.000000,345.000000) scale(0.100000,-0.100000)"
fill="#000000" stroke="none">
<path d="M2708 3270 c-80 -28 -117 -53 -163 -109 -22 -27 -61 -61 -87 -76 -53
-29 -93 -76 -133 -155 -15 -30 -48 -84 -74 -120 -61 -85 -111 -164 -111 -176
0 -5 5 -2 11 6 9 12 10 11 6 -7 -4 -20 -2 -21 14 -12 15 7 19 6 19 -6 0 -8 4
-15 9 -15 4 0 7 -11 6 -25 -2 -14 1 -25 6 -25 5 0 9 -8 9 -17 0 -16 -2 -16
-11 -3 -8 12 -10 12 -7 1 2 -8 17 -16 34 -18 55 -7 57 -10 32 -53 -15 -25 -30
-40 -43 -40 -29 0 -38 -10 -60 -60 -11 -25 -23 -47 -27 -50 -4 -3 -23 -37 -43
-75 -20 -38 -45 -75 -56 -83 -10 -7 -19 -19 -19 -27 0 -17 -119 -165 -205
-257 -35 -37 -72 -79 -82 -95 -9 -15 -20 -30 -23 -33 -3 -3 -22 -27 -41 -55
-18 -27 -37 -52 -40 -55 -9 -8 -134 -200 -188 -290 -28 -45 -64 -119 -82 -164
-17 -44 -47 -110 -68 -146 -51 -88 -96 -211 -114 -310 -16 -86 -42 -126 -99
-156 -25 -13 -32 -12 -70 7 -41 21 -112 41 -188 53 -19 3 -59 10 -89 16 -66
12 -153 -6 -249 -52 -81 -38 -105 -64 -147 -153 -25 -55 -40 -75 -68 -90 -27
-14 -33 -22 -26 -32 6 -6 7 -22 4 -35 -4 -13 -4 -20 0 -16 5 4 13 4 19 -1 25
-21 122 -37 176 -29 30 4 87 9 125 13 39 3 90 8 115 10 25 3 72 7 105 10 33 2
85 7 116 10 45 5 68 2 115 -17 55 -22 126 -31 249 -31 34 0 202 23 288 39 20
4 27 2 27 -10 0 -39 110 -50 202 -20 41 13 47 19 50 47 3 32 3 32 73 39 101 9
164 30 233 76 l60 41 6 -43 7 -43 50 8 c28 4 57 13 65 20 18 15 19 -3 2 -34
-10 -19 -9 -20 4 -9 13 10 17 10 22 -3 3 -9 2 -13 -3 -10 -5 3 -13 0 -17 -6
-4 -8 -3 -9 5 -5 7 5 24 -7 43 -29 32 -36 104 -84 136 -89 9 -2 60 -7 112 -11
52 -4 107 -8 123 -9 15 -1 27 3 27 8 1 34 24 44 116 47 31 1 59 8 66 16 16 20
-36 65 -97 83 -47 15 -50 19 -73 75 -22 56 -23 74 -24 256 0 229 5 256 94 488
58 152 86 213 101 219 4 2 5 8 1 13 -3 5 -1 9 5 9 6 0 8 6 5 14 -3 7 2 16 11
20 9 3 14 10 10 15 -3 5 -1 12 5 16 6 4 8 11 5 16 -4 5 -1 9 4 9 6 0 10 3 10
8 -1 4 0 9 1 12 1 3 3 12 5 20 2 8 13 51 25 95 26 98 43 348 29 415 -20 93
-18 131 9 209 18 50 27 96 27 133 0 51 2 57 18 52 13 -4 17 1 18 18 4 81 4 83
22 81 16 -1 18 5 13 39 -5 33 -3 38 8 29 15 -12 15 -19 1 114 -4 39 -8 86 -10
105 -12 131 -18 176 -23 185 -4 6 -7 16 -8 23 -7 46 -110 179 -169 218 -71 47
-194 63 -277 34z m-133 -2710 c10 -47 32 -127 51 -177 18 -51 32 -93 30 -93
-2 0 -17 5 -35 11 -25 9 -38 24 -62 77 -29 62 -31 69 -23 141 4 42 8 91 7 110
-2 54 13 23 32 -69z"/>
</g>
</svg>
